PathFileType	4	(X/Y/Z)	6_coords_data.trc
DataRate	CameraRate	NumFrames	NumMarkers	Units	OrigDataRate	OrigDataStartFrame	OrigNumFrames
30.0	30.0	6	21	m	30.0	30	68
Frame#	Time	THUMB_TIP	THUMB_IP	THUMB_MCP	THUMB_CMC	INDEX_TIP	INDEX_DIP	INDEX_PIP	INDEX_MCP	MIDDLE_TIP	MIDDLE_DIP	MIDDLE_PIP	MIDDLE_MCP	RING_TIP	RING_DIP	RING_PIP	RING_MCP	PINKY_TIP	PINKY_DIP	PINKY_PIP	PINKY_MCP	WRIST
X1	Y1	Z1	X2	Y2	Z2	X3	Y3	Z3	X4	Y4	Z4	X5	Y5	Z5	X6	Y6	Z6	X7	Y7	Z7	X8	Y8	Z8	X9	Y9	Z9	X10	Y10	Z10	X11	Y11	Z11	X12	Y12	Z12	X13	Y13	Z13	X14	Y14	Z14	X15	Y15	Z15	X16	Y16	Z16	X17	Y17	Z17	X18	Y18	Z18	X19	Y19	Z19	X20	Y20	Z20	X21	Y21	Z21
29	0.9666666666666667	0.014974200248718261	-0.1875899963378906	1.115260009765625	0.01742690086364746	-0.1609129943847656	1.1103599853515624	0.000760324001312255	-0.13333399963378906	1.1060699462890624	-0.0070355401039123525	-0.0934293975830078	1.1035999755859376	0.044514301300048825	-0.15628900146484376	0.9766580200195313	0.039033500671386716	-0.14517799377441407	0.995969970703125	0.03337260055541992	-0.13271600341796874	1.0166900024414063	0.019266700744628905	-0.10933599853515626	1.047780029296875	0.03657109832763672	-0.09571730041503906	0.9409169921875	0.03529550170898438	-0.0947676010131836	0.9674669799804687	0.030304500579833984	-0.09235050201416016	0.998573974609375	0.017180700302124024	-0.08629750061035156	1.0385699462890625	0.04336830139160156	-0.0442333984375	0.95414697265625	0.0410614013671875	-0.049933101654052736	0.9781939697265625	0.036522598266601564	-0.055964298248291015	1.0051199951171874	0.023238599777221678	-0.0631801986694336	1.0417099609375	0.047402099609375	0.008215229988098144	1.0135800170898437	0.04351589965820313	-0.0070609297752380375	1.02647998046875	0.037408298492431644	-0.021364200592041017	1.0373599853515625	0.022205299377441406	-0.04321189880371094	1.0509300537109374	-0.02790410041809082	-0.060259201049804687	1.1083699951171875
30	1.0	0.015221799850463867	-0.1873520050048828	1.115219970703125	0.017668399810791015	-0.16061700439453125	1.1102900390625	0.000919175028800964	-0.1331280059814453	1.106010009765625	-0.006690569877624512	-0.09313140106201172	1.10331005859375	0.04493050003051758	-0.1559750061035156	0.9766190185546875	0.03939419937133789	-0.14490199279785157	0.9959110107421875	0.03371369934082031	-0.1323800048828125	1.016719970703125	0.01953820037841797	-0.10919200134277343	1.0476700439453126	0.037083301544189456	-0.09544439697265625	0.9409240112304688	0.03574560165405274	-0.09452770233154296	0.9675009765625	0.030765199661254884	-0.09218560028076171	0.9985479736328124	0.01747960090637207	-0.08605989837646484	1.03843994140625	0.04395940017700195	-0.04411109924316406	0.9541589965820313	0.04153219985961914	-0.049733898162841794	0.9781950073242187	0.03690850067138672	-0.055688400268554684	1.0051500244140625	0.023534799575805666	-0.06293629837036133	1.041800048828125	0.04769900131225586	0.008390489578247071	1.0134600219726562	0.04379949951171875	-0.00686948013305664	1.0264200439453126	0.03768349838256836	-0.021135400772094727	1.0373299560546876	0.02254330062866211	-0.042963199615478516	1.0510400390625	-0.027635000228881837	-0.06009439849853516	1.1081400146484375
31	1.0333333333333334	0.015506999969482422	-0.1871510009765625	1.11522998046875	0.017869300842285156	-0.16038400268554687	1.110199951171875	0.001192700028419494	-0.13296600341796874	1.106280029296875	-0.006579400062561035	-0.09301200103759766	1.103260009765625	0.045246898651123045	-0.1557429962158203	0.9765269775390625	0.03966590118408203	-0.14467799377441407	0.9958690185546875	0.03389419937133789	-0.13214700317382813	1.0166699829101562	0.019701999664306642	-0.10899700164794922	1.0476199951171874	0.037442401885986326	-0.09526100158691406	0.9409210205078125	0.036034000396728515	-0.09435240173339844	0.9674359741210937	0.030950199127197264	-0.09199440002441406	0.9985020141601563	0.017673999786376952	-0.08591639709472657	1.03831005859375	0.04429669952392578	-0.04395729827880859	0.9540670166015625	0.041802101135253907	-0.04960070037841797	0.9781649780273437	0.03708340072631836	-0.05553499984741211	1.0050700073242187	0.023661399841308595	-0.06279259872436524	1.0415400390625	0.047826099395751956	0.008533960342407226	1.0132899780273437	0.043920600891113284	-0.006712269783020019	1.026239990234375	0.037780601501464846	-0.020947999954223633	1.0371700439453124	0.022651199340820313	-0.04275199890136719	1.050780029296875	-0.0273976993560791	-0.059868499755859374	1.108
32	1.0666666666666667	0.016244699478149414	-0.18684100341796875	1.1149599609375	0.01834510040283203	-0.16015699768066408	1.1100400390625	0.001559000015258789	-0.13277699279785157	1.1059599609375	-0.006255660057067871	-0.09281310272216797	1.10318994140625	0.045693199157714845	-0.15538299560546875	0.9762890014648438	0.04002410125732422	-0.14434100341796874	0.9956500244140625	0.034165699005126955	-0.13188800048828125	1.0164600219726563	0.01972830009460449	-0.10874299621582031	1.0475799560546875	0.037605300903320316	-0.09499649810791015	0.94068798828125	0.03622700119018555	-0.09410260009765625	0.9672260131835938	0.03108289909362793	-0.09172879791259765	0.99839697265625	0.017698699951171876	-0.08568180084228516	1.0382099609375	0.044555599212646485	-0.04381039810180664	0.9539030151367187	0.04200979995727539	-0.04938840103149414	0.9779340209960937	0.037200698852539064	-0.055325000762939454	1.00472998046875	0.023640899658203124	-0.06252349853515625	1.0415899658203125	0.047677600860595706	0.008738969802856445	1.0128300170898437	0.0438218994140625	-0.006453969955444336	1.0257900390625	0.03776630020141602	-0.020712900161743163	1.0368199462890626	0.02272050094604492	-0.042529499053955075	1.0506700439453125	-0.027166099548339845	-0.059775398254394534	1.1078399658203124
33	1.1	0.016512399673461915	-0.1867030029296875	1.1146800537109376	0.018561199188232423	-0.15986099243164062	1.1097900390625	0.001632249951362609	-0.13256100463867188	1.1059100341796875	-0.006069079875946045	-0.09260600280761719	1.103030029296875	0.04606439971923828	-0.15515400695800782	0.9761699829101562	0.0403489990234375	-0.14410299682617186	0.9954929809570312	0.03438859939575195	-0.13161599731445311	1.0163300170898437	0.019929000854492188	-0.10858899688720704	1.0474300537109376	0.03783340072631836	-0.09488069915771484	0.9405889892578125	0.03639839935302734	-0.09394499969482421	0.96710498046875	0.03122960090637207	-0.09155269622802735	0.9982520141601563	0.017842899322509764	-0.08553500366210938	1.0380799560546874	0.04479669952392578	-0.043737098693847655	0.9537470092773438	0.04218439865112305	-0.049325000762939455	0.9777769775390625	0.03736080169677734	-0.055236400604248045	1.00475	0.023811800003051758	-0.06242649841308594	1.041300048828125	0.04752429962158203	0.008898159980773927	1.012469970703125	0.04374330139160156	-0.006310329914093017	1.0254200439453125	0.03775410079956055	-0.020543699264526368	1.0365	0.022807199478149413	-0.042364299774169924	1.0503800048828125	-0.02702120018005371	-0.05969060134887695	1.1078199462890626
34	1.1333333333333333	0.016533599853515626	-0.18672000122070312	1.11452001953125	0.018566600799560545	-0.15980499267578124	1.1096400146484375	0.0017253899574279782	-0.13242999267578126	1.1055999755859376	-0.006120359897613526	-0.09255460357666015	1.103010009765625	0.04619409942626953	-0.15488900756835938	0.9760089721679688	0.04046260070800781	-0.14388299560546874	0.9953660278320312	0.03445539855957031	-0.131468994140625	1.0162100219726562	0.019990100860595703	-0.10845700073242187	1.047239990234375	0.03810749816894531	-0.09469159698486328	0.9405579833984375	0.03659339904785156	-0.0937844009399414	0.967031005859375	0.031386499404907224	-0.09145680236816406	0.9981270141601563	0.017887100219726563	-0.08541139984130859	1.03797998046875	0.045034000396728516	-0.043687301635742186	0.9536680297851563	0.04241120147705078	-0.04923590087890625	0.9778599853515625	0.03750820159912109	-0.05511679840087891	1.0046199951171875	0.02370759963989258	-0.06228189849853515	1.0411600341796876	0.04748699951171875	0.009022749900817872	1.012280029296875	0.043725601196289064	-0.006161640167236328	1.02527001953125	0.03775859832763672	-0.02039940071105957	1.0364000244140625	0.022898399353027343	-0.04224499893188476	1.050469970703125	-0.027096900939941406	-0.05953409957885742	1.1076300048828125
